<svg width="25" height="35" enable-background="new 0 0 512 512" viewBox="0 0 512 512" xmlns="http://www.w3.org/2000/svg"><path d="M490.007 217.504l-69.27-43.11C371.973 144.042 315.007 128 256 128s-115.973 16.042-164.737 46.393l-69.27 43.11C8.222 226.075 0 240.466 0 256s8.222 29.925 21.993 38.496l69.27 43.11C140.027 367.958 196.993 384 256 384s115.973-16.042 164.737-46.393l69.27-43.11C503.778 285.925 512 271.534 512 256s-8.222-29.925-21.993-38.496zM256 336c-44.112 0-80-35.888-80-80s35.888-80 80-80 80 35.888 80 80-35.888 80-80 80zM38.902 267.328C34.516 264.598 32 260.47 32 256s2.516-8.598 6.9-11.328l69.27-43.11c23.99-14.93 50.218-25.8 77.467-32.63C160.258 189.48 144 220.875 144 256s16.258 66.52 41.638 87.07c-27.25-6.83-53.478-17.7-77.467-32.63zm434.197 0l-69.27 43.11c-23.99 14.93-50.217 25.8-77.467 32.63C351.742 322.52 368 291.125 368 256s-16.258-66.52-41.638-87.07c27.25 6.83 53.478 17.7 77.467 32.63l69.27 43.11C477.484 247.4 480 251.53 480 256s-2.516 8.6-6.9 11.328z" fill="#e8d924"/><circle cx="256" cy="256" r="32" fill="#e8d924"/>
</svg>