<svg xmlns="http://www.w3.org/2000/svg" viewBox="0 0 480 480"  xmlns:v="https://vecta.io/nano"><path d="M240 0C107.452 0 0 107.452 0 240c.15 132.486 107.514 239.85 240 240 132.548 0 240-107.452 240-240S372.548 0 240 0zm191.064 123.2L365.8 188.48c-13.88-33.664-40.616-60.4-74.28-74.28l65.28-65.264c30.25 18.571 55.693 44.014 74.264 74.264zM360 240c0 66.274-53.726 120-120 120s-120-53.726-120-120c.075-66.243 53.757-119.925 120-120 66.274 0 120 53.726 120 120zM342.28 40.8l-67.784 67.784a131.65 131.65 0 0 0-68.992 0L137.72 40.8c64.173-33.085 140.387-33.085 204.56 0zM123.2 48.936l65.264 65.264c-33.664 13.88-60.4 40.616-74.28 74.28L48.936 123.2C67.507 92.95 92.95 67.507 123.2 48.936zM40.8 137.72l67.784 67.784a131.65 131.65 0 0 0 0 68.992l-43.84 43.84A192.18 192.18 0 0 1 48 240H32c.057 31.292 7.167 62.17 20.8 90.336l-12 11.944c-33.085-64.173-33.085-140.387 0-204.56zm8.136 219.08l65.264-65.264c13.88 33.664 40.616 60.4 74.28 74.28l-65.28 65.248C92.95 412.493 67.507 387.05 48.936 356.8zm88.784 82.4l67.784-67.784a131.62 131.62 0 0 0 68.984 0L342.28 439.2c-64.173 33.085-140.387 33.085-204.56 0zm219.08-8.136L291.52 365.8c33.664-13.88 60.4-40.616 74.28-74.28l65.264 65.28c-18.571 30.25-44.014 55.693-74.264 74.264zm14.616-156.584a131.65 131.65 0 0 0 0-68.992L439.2 137.72c33.085 64.173 33.085 140.387 0 204.56v-.016l-67.784-67.784zM172.008 43.432l5.248 15.088c32.594-11.207 67.593-13.491 101.368-6.616l3.2-15.672a209.28 209.28 0 0 0-109.816 7.2zM34.6 207c-.864 5.424-1.52 10.928-1.96 16.36l15.952 1.272c.416-5.016 1.008-10.104 1.808-15.112L34.6 207zm136.864 212.36l-5.72 14.944c5.28 2.024 10.648 3.832 15.952 5.376l4.48-15.352a194.02 194.02 0 0 1-14.712-4.968zm30.632 8.88l-3.16 15.688c13.52 2.711 27.275 4.075 41.064 4.072v-16a192.51 192.51 0 0 1-37.904-3.76zM298.32 40.32l-4.496 15.352c5.28 1.544 10.56 3.344 15.688 5.344l5.816-14.904c-5.6-2.168-11.288-4.12-17.008-5.792z" fill="#e8d924"/></svg>