<svg xmlns="http://www.w3.org/2000/svg" height="40" viewBox="0 0 128 128" width="40" xmlns:v="https://vecta.io/nano"><circle cx="64" cy="64" fill="rgba(0, 0, 0, 0.4)" r="64"/><path d="M38.44 62.8l-10.4-10.4a17.232 17.232 0 0 1 24.37-24.37l10.4 10.4A17.232 17.232 0 0 1 38.44 62.8zm7.88-29.25a9.026 9.026 0 0 0-12.76 12.769l10.97 10.97A9.022 9.022 0 0 0 57.289 44.53zm29.272 66.412l-10.4-10.4A17.232 17.232 0 0 1 89.56 65.19l10.4 10.4a17.232 17.232 0 0 1-24.37 24.37zm7.88-29.25a9.022 9.022 0 0 0-12.759 12.759l10.97 10.97a9.022 9.022 0 0 0 12.757-12.76z" fill="#c8c8c8"/><path d="M71.6 77.318L50.682 56.4a4.036 4.036 0 0 1 5.708-5.708L77.318 71.6a4.036 4.036 0 0 1-5.708 5.708z" fill="#c8c8c8"/></svg>