<svg xmlns="http://www.w3.org/2000/svg" viewBox="0 0 512.002 512.002"  xmlns:v="https://vecta.io/nano" fill="#e8d924"><path d="M511.89 475.873l-29.997-165.398c-.74-4.084-4.651-6.795-8.735-6.054s-6.793 4.652-6.053 8.735l12.683 69.933-97.782-113.58 65.766-14.678 9.738 5.421 4.228 23.316c.74 4.084 4.651 6.793 8.735 6.054a7.52 7.52 0 0 0 6.054-8.735l-4.864-26.814c-.401-2.214-1.773-4.131-3.738-5.225L366.68 192.49c-.299-.166-.595-.304-.898-.423-.095-.037-.192-.062-.289-.095-.211-.074-.423-.145-.638-.2-.122-.031-.245-.049-.369-.073-.193-.038-.387-.076-.582-.099-.132-.016-.263-.021-.396-.029a7.67 7.67 0 0 0-.567-.02c-.135.001-.269.011-.404.019-.186.012-.372.029-.558.055a6.96 6.96 0 0 0-.404.07 7.88 7.88 0 0 0-.542.127 8.07 8.07 0 0 0-.402.121c-.174.059-.346.126-.517.198-.132.056-.263.111-.394.175-.057.028-.116.047-.172.076l-17.168 8.949c12.772-23.815 19.224-46.88 19.224-68.946 0-57.965-47.158-105.123-105.123-105.123S151.364 74.43 151.364 132.395c0 22.28 6.572 45.579 19.594 69.64l-18.499-9.643c-.057-.03-.118-.05-.176-.078-.126-.062-.256-.116-.384-.17-.173-.073-.348-.141-.525-.201a7.88 7.88 0 0 0-.397-.12c-.18-.049-.361-.092-.543-.128a7.06 7.06 0 0 0-.407-.07c-.183-.026-.367-.042-.551-.054-.138-.009-.276-.018-.413-.02a7.8 7.8 0 0 0-.551.019c-.138.009-.276.014-.414.031-.187.022-.372.059-.557.095-.131.026-.263.045-.393.078-.205.052-.406.121-.607.19-.105.036-.212.064-.317.105a7.57 7.57 0 0 0-.885.416L44.086 248.848c-1.966 1.094-3.338 3.011-3.738 5.225L11.831 411.308c-.74 4.083 1.97 7.995 6.054 8.735s7.995-1.97 8.735-6.054l8.555-47.171 97.261-51.414-7.822 100.994-107.157 48.115 3.771-20.8c.74-4.083-1.969-7.994-6.053-8.735a7.52 7.52 0 0 0-8.735 6.054L.121 475.874c-.498 2.744.566 5.539 2.762 7.258a7.51 7.51 0 0 0 7.709.938l121.168-54.405 121.167 54.404c.068.031.139.052.209.081a7.57 7.57 0 0 0 .337.13c.109.039.219.078.331.112.072.022.144.041.216.061a6.51 6.51 0 0 0 .283.073 7.66 7.66 0 0 0 .471.09c.075.012.149.03.225.04l.153.02c.251.029.505.044.757.047.032 0 .064.006.096.006.016 0 .032-.003.048-.003.304-.002.606-.027.909-.066.037-.005.075-.003.113-.009.057-.008.113-.027.171-.036a7.15 7.15 0 0 0 .702-.153c.064-.017.129-.027.193-.045.007-.002.013-.002.02-.004.021-.006.04-.017.061-.024a7.46 7.46 0 0 0 .862-.32l121.164-54.405 121.167 54.404c.117.052.237.091.357.137s.234.097.355.137c.157.052.318.091.478.132.099.026.195.058.296.079.193.042.388.069.583.096.07.009.138.025.208.033.267.029.534.044.801.044h.001c.367 0 .732-.037 1.096-.09.084-.012.168-.025.252-.041.359-.065.715-.149 1.067-.269.022-.008.044-.019.066-.026.232-.081.463-.17.689-.277.066-.031.123-.075.188-.108.189-.095.371-.204.553-.317s.363-.223.534-.35c.059-.044.125-.075.184-.12.132-.103.247-.222.371-.334.099-.089.202-.173.297-.266a7.17 7.17 0 0 0 .629-.714c.036-.047.079-.088.115-.136a7.51 7.51 0 0 0 .597-.955c.049-.093.086-.192.132-.288.116-.244.223-.49.313-.745.045-.128.081-.258.119-.39a7.45 7.45 0 0 0 .17-.712c.026-.138.05-.277.068-.417a7.64 7.64 0 0 0 .055-.773c.003-.123.013-.245.01-.37-.006-.382-.038-.769-.109-1.155zM379.797 216.992l-7.704 1.802-.493-6.365 8.197 4.563zm-16.394 84.226l-31.384-24.505a7.52 7.52 0 0 0-7.624-.968l-60.844 26.482v-8.235c4.546-3.703 14.875-12.433 27.255-24.962l67.797-29.784 4.8 61.972zm-6.99-90.24l.96 12.392-42.353 18.607c4.205-5.213 8.126-10.398 11.765-15.555l29.628-15.444zm-200.815 0l31.15 16.238c4.613 6.487 9.666 13.021 15.173 19.598a360.46 360.46 0 0 0 14.231 15.984l-63.86-9.138 3.306-42.682zm-21.79 86.7l-95.224 50.336 4.757-26.233 92.37-48.681-1.903 24.578zm3.276-42.29l-90.335 47.609 7.752-42.744 85.91-47.823-3.327 42.958zm2.578 161.349l7.115-91.869 88.77 134.922-95.885-43.053zm108.828-28.964l-46.293-72.958 46.293 5.543v67.415zm0-82.553l-60.229-7.211c-2.879-.339-5.704 1-7.251 3.456s-1.542 5.581.013 8.033l67.467 106.328v36.294l-99.819-151.715 2.458-31.728 82.913 11.864c6.253 5.803 11.322 10.112 14.447 12.685v11.994zm7.997-24.917c-18.977-16.005-90.093-80.494-90.093-147.907-.001-49.678 40.415-90.094 90.093-90.094s90.094 40.416 90.094 90.094c0 67.413-71.117 131.903-90.094 147.907zm7.033 185.299v-33.357l22.466 23.269-22.466 10.088zm37.04-16.632l-37.04-38.364V318.63l62.772-27.32 38.681 30.203 7.375 95.224-71.788 32.233zm72.706-215.017l26.055-6.093 28.702 15.978-53.075 11.845-1.682-21.73zm14.131 182.445l-5.867-75.75 96.54 116.464-90.673-40.714zm-7.878-101.727l-2.128-27.487 107.69 125.09 6.905 38.073-112.467-135.676zM256.487 85.95c-4.15 0-7.515 3.364-7.515 7.515s3.365 7.515 7.515 7.515c17.323 0 31.416 14.093 31.416 31.416s-14.093 31.416-31.416 31.416-31.416-14.093-31.416-31.416c0-8.287 3.198-16.106 9.006-22.018 2.909-2.96 2.867-7.718-.094-10.626s-7.719-2.868-10.627.094c-8.586 8.739-13.314 20.299-13.314 32.55 0 25.61 20.835 46.446 46.446 46.446s46.446-20.836 46.446-46.446-20.836-46.446-46.447-46.446z"  fill="#e8d924"/></svg>