<svg xmlns="http://www.w3.org/2000/svg" viewBox="0 0 56.48 56.48"  xmlns:v="https://vecta.io/nano" fill="#fff"><path d="M15.05 25.812c-1.058 0-1.87.34-1.87.34l-.224 1.33s.67-.272 1.682-.272c.575 0 .995.064.995.53 0 .284-.05.4-.05.4l-.663-.037c-1.335 0-2.737.568-2.737 2.287 0 1.354.92 1.663 1.5 1.663 1.1 0 1.56-.706 1.583-.708l-.05.6h1.36l.606-4.25c-.001-1.805-1.574-1.863-2.12-1.863zm-.762 4.938a.56.56 0 0 1-.604-.583c0-.422.23-.93 1.36-.93.264.001.292.028.336.036.03.26-.162 1.477-1.092 1.477zm5.672-3.513c.217 0 1.054.07 1.054.07l.195-1.362s-.542-.12-1.424-.12c-1.142 0-2.3.456-2.3 2.015 0 1.768 1.932 1.588 1.932 2.334 0 .496-.54.537-.956.537-.72 0-1.37-.246-1.37-.236l-.206 1.35c.037.01.437.188 1.732.188.347 0 2.334.1 2.334-1.96 0-1.918-1.84-1.54-1.84-2.3 0-.384.3-.504.85-.504zm3.246.173h.817l.197-1.452h-.77l.157-.9h-1.543c-.034.033-.9 5.076-.9 5.688 0 .9.5 1.315 1.23 1.308.563-.004 1.002-.16 1.157-.203l.193-1.312c-.106 0-.26.046-.398.046-.537 0-.596-.287-.562-.498l.433-2.677zm6.467-8.423H26.92c-.37.5-.718 1.032-1.033 1.552H30.8c-.34-.542-.718-1.06-1.126-1.552zM51.16 36.445c-.03-.045-.055-.08-.075-.1-.01-.01-.025-.02-.043-.026a.16.16 0 0 0 .105-.046c.025-.026.04-.06.04-.096 0-.026-.008-.05-.023-.074s-.037-.04-.064-.05a.38.38 0 0 0-.127-.015H50.8v.505h.082v-.214h.047c.028 0 .05.006.064.018.02.017.05.056.086.117l.044.08h.1l-.062-.1zm-.182-.182h-.1v-.152h.094a.24.24 0 0 1 .08.009c.016.006.026.015.035.026s.012.025.012.04c0 .023-.008.043-.025.057s-.05.02-.096.02zm-19.344-14.2h-6.607l-.78 1.553h8.014c-.18-.534-.4-1.05-.626-1.553zm-21.34 2.52l-1.52 4.5-.08-4.5H6.44l-1.234 7.35h1.5l.94-5.54.138 5.54h1.063l1.983-5.54-.88 5.54h1.58l1.217-7.35zm29.777 1.23c-1.06 0-1.87.34-1.87.34l-.225 1.33s.67-.272 1.682-.272c.575 0 .996.064.996.53 0 .284-.053.4-.053.4l-.664-.037c-1.334 0-2.735.568-2.735 2.287 0 1.354.92 1.663 1.5 1.663 1.088 0 1.558-.706 1.583-.708l-.05.6h1.358l.606-4.25c.003-1.805-1.57-1.863-2.117-1.863zm-.76 4.938c-.48 0-.604-.365-.604-.583 0-.422.23-.93 1.36-.93.263.001.3.028.336.036.03.26-.164 1.477-1.092 1.477zm11.9.505a.42.42 0 0 0-.176-.174c-.074-.04-.15-.06-.23-.06a.48.48 0 0 0-.23.06.42.42 0 0 0-.175.174c-.042.076-.063.153-.063.234s.02.158.063.232a.47.47 0 0 0 .173.175.46.46 0 0 0 .232.062.47.47 0 0 0 .233-.062.44.44 0 0 0 .173-.175.45.45 0 0 0 .062-.232.46.46 0 0 0-.062-.234zm-.065.427a.37.37 0 0 1-.145.146.38.38 0 0 1-.193.052c-.067 0-.133-.018-.194-.052s-.1-.083-.146-.146-.052-.127-.052-.194a.38.38 0 0 1 .054-.195.44.44 0 0 1 .146-.145.39.39 0 0 1 .192-.05.45.45 0 0 1 .2.05c.07.034.1.082.146.145a.4.4 0 0 1 .054.195.39.39 0 0 1-.052.194z"/><path d="M50.963 31.648c-.03-.047-.055-.08-.074-.1a.13.13 0 0 0-.043-.026.16.16 0 0 0 .104-.046c.026-.026.04-.06.04-.096a.13.13 0 0 0-.024-.074c-.016-.022-.037-.04-.062-.05a.39.39 0 0 0-.128-.015H50.6v.504h.082v-.214h.047c.03 0 .052.006.066.017a.51.51 0 0 1 .086.119l.043.08h.1l-.062-.1zm-.18-.185h-.1V31.3h.092c.04 0 .066.003.082.008s.025.014.033.027.013.024.013.04-.01.04-.024.055-.05.022-.097.022zm-5.47-5.578c-.7 0-1.204.943-1.204.943l.138-.867H42.8l-.963 5.982h1.584c.45-2.556.533-4.63 1.604-4.25.2-.988.37-1.37.576-1.788 0 .001-.096-.02-.297-.02zm3.98-1.295l-.333 2.065s-.58-.803-1.5-.803c-1.415.001-2.593 1.706-2.593 3.664 0 1.265.63 2.504 1.913 2.504.925 0 1.437-.645 1.437-.645l-.067.55h1.5l1.18-7.34-1.548.003zm-1.957 5.93c-.556 0-.816-.466-.816-1.198 0-1.197.537-1.986 1.216-1.986.554.001.84.382.84 1.28 0 .815-.403 1.904-1.24 1.904zm7.7-20.58H1.454A1.46 1.46 0 0 0 0 11.393v33.695c0 .803.65 1.454 1.454 1.454h53.572c.804 0 1.454-.65 1.454-1.454V11.393c0-.803-.65-1.454-1.454-1.454zM51.41 36.52a.44.44 0 0 1-.173.175.47.47 0 0 1-.466 0 .45.45 0 0 1-.174-.175.47.47 0 0 1-.062-.232c0-.08.02-.158.063-.234a.43.43 0 0 1 .175-.174.48.48 0 0 1 .23-.06.48.48 0 0 1 .23.06.42.42 0 0 1 .175.174c.04.076.062.154.062.234s-.018.16-.06.232zm1.048-8.277a14.5 14.5 0 0 1-14.5 14.5 14.43 14.43 0 0 1-9.73-3.75c-2.572 2.327-5.98 3.745-9.717 3.745-8 0-14.495-6.493-14.495-14.495 0-7.97 6.443-14.444 14.402-14.496h.093c3.738 0 7.146 1.418 9.718 3.745a14.44 14.44 0 0 1 9.722-3.748 14.5 14.5 0 0 1 14.5 14.492z"/><path d="M26.753 37.406c.46.562.945 1.098 1.482 1.584l.037-.03h.002a14.49 14.49 0 0 0 1.472-1.552h-2.993zm1.974-7.956s.203-1 .203-1.407c0-1.017-.506-2.257-2.2-2.257-1.552.001-2.7 1.673-2.7 3.563 0 2.18 1.44 2.7 2.666 2.7 1.132 0 1.63-.254 1.63-.254l.272-1.488s-.86.38-1.64.38c-1.657 0-1.367-1.236-1.367-1.236h3.136zm-1.992-2.28c.87 0 .7.98.7 1.057h-1.713c0-.1.162-1.057 1.003-1.057zm9.23-1.18a2.75 2.75 0 0 1 1.416.441l.252-1.635s-.934-.378-1.738-.378c-1.78 0-3.514 1.546-3.514 4.45 0 1.925.935 3.196 2.777 3.196.52 0 1.35-.2 1.35-.2l.276-1.684s-.756.38-1.276.38c-1.096-.001-1.535-.837-1.535-1.733 0-1.823.942-2.824 1.992-2.824zm-11.147 8.37c.25.54.543 1.052.856 1.552h5.143c.312-.498.593-1.016.844-1.552h-6.843zm7.535-8.473c-.7 0-1.203.943-1.203.943l.14-.867h-1.437l-.963 5.982h1.584c.45-2.555.533-4.63 1.604-4.25.188-1 .37-1.372.574-1.8 0 0-.096-.02-.298-.018z"/></svg>