<svg xmlns="http://www.w3.org/2000/svg" viewBox="0 0 56.48 56.48"  xmlns:v="https://vecta.io/nano" fill="#fff"><path d="M12.12 24.86c-.23-.15-.57-.226-1.018-.226l-.383.002c-.25-.002-.508.2-.557.444L9.8 26.6c-.055.246.102.447.356.447h.286c.635 0 1.127-.13 1.48-.4a1.26 1.26 0 0 0 .526-1.1c.002-.314-.1-.55-.337-.698zm6.25 3.504c-.07.002-.598.062-.866.095-.3.043-.56.103-.77.174l-.496.338c-.116.146-.17.332-.17.57l.226.438c.153.086.38.128.667.128.2 0 .396-.046.612-.134l.46-.237.182-.242.238-.987-.08-.144zM55.026 9.94H1.454A1.46 1.46 0 0 0 0 11.393v33.694c0 .803.65 1.455 1.454 1.455h53.572c.804 0 1.454-.65 1.454-1.454V11.393c0-.803-.65-1.454-1.454-1.454zM13.484 27.695c-.796.586-1.904.878-3.336.88h-.334a.6.6 0 0 0-.561.444l-.402 1.738c-.057.248-.308.446-.562.446H7.12c-.254 0-.413-.204-.353-.446l1.645-7.163c.06-.246.3-.443.563-.447l2.444-.001c.528.005.985.037 1.38.1.4.074.73.198 1.018.374a1.73 1.73 0 0 1 .64.69c.156.282.225.635.225 1.055 0 .96-.395 1.736-1.197 2.322zm7.262-.914l-.044.3-.854 3.692c-.05.222-.27.4-.503.438l-.016.006h-1.09l-.004-.004c-.223-.02-.36-.2-.313-.438v-.002l.002-.007.044-.188-.006-.007-.44.3-.48.268-.566.194a3.27 3.27 0 0 1-.735.067c-.5 0-.917-.137-1.233-.42a1.44 1.44 0 0 1-.476-1.1c0-.48.1-.886.334-1.224.23-.336.56-.598 1.007-.794.415-.2.914-.33 1.484-.408l1.727-.187.168-.104.02-.165c0-.254-.118-.43-.353-.532s-.596-.15-1.064-.15c-.318-.004-.718.06-1.097.147l-.7.207c-.1.03-.307.046-.226-.33l.143-.6s.07-.445.515-.542l.6-.1a9.29 9.29 0 0 1 1.416-.11c.953 0 1.65.124 2.092.373s.67.636.667 1.157l-.02.28zm1.88 7.274l-1.212.002c-.252 0-.335-.2-.18-.446l1.037-1.808s.083-.103.01-.693l-.956-5.598c-.058-.245.098-.446.35-.446l1.05-.002c.32 0 .58.2.637.46l.522 3.143.194.002 1.84-3.165c.16-.242.484-.447.736-.447h1.404c.416-.006-.032.668-.032.668L23.36 33.6c-.15.246-.482.444-.732.444zm12.117-6.33c-.8.583-1.912.878-3.344.878h-.334c-.252-.004-.504.2-.562.443l-.396 1.74c-.058.243-.314.443-.562.44l-1.173.003c-.25.001-.413-.2-.353-.444l1.646-7.167c.06-.243.306-.44.56-.445l2.447-.002c.525.002.987.04 1.375.108.395.072.735.196 1.02.373s.498.408.644.692.223.634.225 1.054c0 .96-.4 1.733-1.192 2.326zm7.258-.94l-.043.303-.856 3.7c-.048.223-.27.412-.5.44l-.016.006H39.5l-.002-.006a.34.34 0 0 1-.312-.438l-.002-.003.005-.004.04-.188-.007-.01-.438.295-.483.267-.565.2c-.174.045-.42.064-.733.07-.5 0-.914-.142-1.232-.423-.316-.286-.48-.657-.48-1.1 0-.477.1-.885.335-1.22s.564-.597 1.006-.795c.418-.2.92-.328 1.487-.408l1.728-.186.168-.106.018-.165a.53.53 0 0 0-.354-.53c-.238-.1-.596-.15-1.062-.15-.32-.002-.72.062-1.1.147-.395.092-.502.15-.695.207-.098.03-.3.046-.23-.33l.143-.588s.067-.446.514-.542l.602-.1a8.9 8.9 0 0 1 1.416-.113c.95 0 1.646.126 2.1.375a1.23 1.23 0 0 1 .669 1.155l-.027.283zm3.75-3.107l-1.568 7.1-.055.084c-.093.2-.3.362-.506.362h-1.088l-.02-.025c-.207-.032-.342-.2-.293-.417v-.005l.047-.205 1.518-6.894.06-.1c.095-.196.3-.355.504-.355h1.047c.255 0 .408.2.354.443l.003.002zm2.078-.768h-.392v.52l.003.14.027.094.062.06.12.02.098-.014.073-.022h.01v.17l-.117.023-.1.01-.266-.095-.1-.3V22.9h-.132v-.162h.132v-.325h.193v.325h.392v.162zm1.895.24v.737h-.2v-.65l-.012-.14-.025-.1-.066-.065-.127-.023-.16.04-.163.103.003.056.002.06v.73h-.2v-.65l-.008-.14-.027-.1-.064-.065-.13-.023-.157.04-.16.1v.85h-.188v-1.14h.188v.127l.182-.116.188-.042.198.047.122.136.2-.14.205-.042.277.113.1.318H49.7zm-10.096 5.22c-.07-.001-.596.06-.86.095a4.2 4.2 0 0 0-.77.174c-.214.084-.388.197-.5.338s-.168.332-.168.572l.23.437c.146.087.37.13.666.13.187 0 .393-.046.608-.133l.457-.237.188-.242.234-.988-.082-.145zm-6.256-3.482c-.23-.15-.567-.225-1.016-.227l-.38.002a.6.6 0 0 0-.56.445l-.354 1.52a.35.35 0 0 0 .359.446h.3c.633 0 1.124-.13 1.478-.384.35-.26.528-.625.526-1.104-.006-.312-.115-.547-.343-.697z"/></svg>