<svg xmlns="http://www.w3.org/2000/svg" viewBox="0 0 458.186 458.186"  xmlns:v="https://vecta.io/nano"><path d="M445.651 201.95a17.07 17.07 0 0 0-19.543-14.164 17.07 17.07 0 0 0-14.164 19.543l.051.304c17.38 102.311-51.47 199.339-153.781 216.719S58.875 372.882 41.495 270.571 92.966 71.232 195.276 53.852a187.91 187.91 0 0 1 170.059 58.361l-75.605 25.19a17.07 17.07 0 0 0-10.806 21.582c2.979 8.951 12.641 13.788 21.585 10.813l102.407-34.135a17.07 17.07 0 0 0 11.674-16.196v-102.4A17.07 17.07 0 0 0 397.523 0a17.07 17.07 0 0 0-17.067 17.067v62.344C292.564-4.185 153.545-.702 69.949 87.19s-80.114 226.911 7.779 310.508 226.911 80.114 310.508-7.779c47.669-50.12 68.943-119.767 57.415-187.969z" fill="#e8d924"/></svg>