<svg xmlns="http://www.w3.org/2000/svg" viewBox="0 0 24 24"  xmlns:v="https://vecta.io/nano" fill="#c8c8c8"><path d="M13.12 24h-2.24a1.5 1.5 0 0 1-1.486-1.32l-.24-1.876a9.45 9.45 0 0 1-1.374-.569l-1.494 1.16a1.49 1.49 0 0 1-1.985-.126l-1.575-1.575c-.537-.52-.6-1.374-.122-1.98l1.16-1.495a9.23 9.23 0 0 1-.569-1.374l-1.88-.24A1.5 1.5 0 0 1 0 13.12v-2.24a1.5 1.5 0 0 1 1.32-1.486l1.876-.24a9.45 9.45 0 0 1 .569-1.374l-1.16-1.494A1.49 1.49 0 0 1 2.732 4.3l1.575-1.575a1.48 1.48 0 0 1 1.98-.122L7.78 3.766a9.53 9.53 0 0 1 1.375-.57l.24-1.88A1.5 1.5 0 0 1 10.88 0h2.24a1.5 1.5 0 0 1 1.486 1.32l.24 1.876a9.31 9.31 0 0 1 1.375.57l1.494-1.16a1.49 1.49 0 0 1 1.985.127l1.575 1.575c.537.52.6 1.374.122 1.98l-1.16 1.495a9.23 9.23 0 0 1 .569 1.374l1.88.24A1.5 1.5 0 0 1 24 10.88v2.24a1.5 1.5 0 0 1-1.32 1.486l-1.876.24a9.45 9.45 0 0 1-.569 1.374l1.16 1.494a1.49 1.49 0 0 1-.127 1.985l-1.575 1.575c-.52.537-1.375.592-1.98.122l-1.495-1.16a9.23 9.23 0 0 1-1.374.569l-.24 1.88A1.5 1.5 0 0 1 13.12 24zm-5.4-4.86c.083 0 .168.02.244.063a8.37 8.37 0 0 0 1.774.736.5.5 0 0 1 .358.417l.28 2.2c.03.25.247.444.494.444h2.24c.247 0 .464-.193.493-.44l.28-2.204a.5.5 0 0 1 .358-.417c.626-.18 1.223-.428 1.774-.736a.5.5 0 0 1 .55.042l1.75 1.36c.2.156.483.143.655-.034l1.585-1.585c.18-.176.195-.458.04-.66l-1.36-1.75a.5.5 0 0 1-.042-.55 8.37 8.37 0 0 0 .736-1.774.5.5 0 0 1 .417-.358l2.2-.28c.25-.03.444-.248.444-.495v-2.24c0-.247-.193-.464-.44-.493l-2.204-.28a.5.5 0 0 1-.417-.358c-.18-.626-.428-1.223-.736-1.774-.098-.175-.082-.392.042-.55l1.36-1.75a.49.49 0 0 0-.033-.654l-1.585-1.585c-.175-.182-.458-.196-.66-.04l-1.75 1.36a.5.5 0 0 1-.551.042 8.36 8.36 0 0 0-1.774-.736.5.5 0 0 1-.358-.417l-.28-2.2c-.03-.252-.248-.445-.495-.445h-2.24c-.247 0-.464.193-.493.44l-.28 2.204a.5.5 0 0 1-.358.418c-.628.18-1.225.428-1.774.735a.5.5 0 0 1-.551-.041l-1.75-1.36a.49.49 0 0 0-.654.033L3.434 5.014c-.18.176-.195.458-.04.66l1.36 1.75a.5.5 0 0 1 .042.55 8.34 8.34 0 0 0-.736 1.774.5.5 0 0 1-.417.358l-2.2.28c-.25.03-.444.247-.444.494v2.24c0 .247.193.464.44.493l2.204.28a.5.5 0 0 1 .417.358c.18.626.428 1.223.736 1.774.098.175.082.392-.042.55l-1.36 1.75a.49.49 0 0 0 .033.654l1.585 1.585c.175.18.456.195.66.04l1.75-1.36c.1-.068.2-.104.308-.104zM12 17c-2.757 0-5-2.243-5-5s2.243-5 5-5 5 2.243 5 5-2.243 5-5 5zm0-9c-2.206 0-4 1.794-4 4s1.794 4 4 4 4-1.794 4-4-1.794-4-4-4z"/></svg>