<svg xmlns="http://www.w3.org/2000/svg" viewBox="0 0 512 512"  xmlns:v="https://vecta.io/nano"><path d="M251.3 276.926a10.06 10.06 0 0 0-7.07-2.93c-2.63 0-5.2 1.07-7.07 2.93a10.08 10.08 0 0 0-2.93 7.07c0 2.63 1.07 5.2 2.93 7.07a10.08 10.08 0 0 0 7.07 2.931c2.63 0 5.2-1.07 7.07-2.93s2.93-4.44 2.93-7.07-1.07-5.2-2.93-7.07zm222.707-58.93h-24.1c-14.207-29.552-44.44-50-79.363-50s-65.156 20.448-79.363 50H38.004c-20.953 0-38 17.047-38 38s17.047 38 38 38h160.33c5.522 0 10-4.478 10-10s-4.478-10-10-10H38.004c-9.925 0-18-8.075-18-18s8.075-18 18-18h246.374a88.04 88.04 0 0 0-1.854 18c0 48.522 39.476 88 88 88 34.92 0 65.156-20.448 79.363-50h24.1c20.953 0 38-17.047 38-38s-17.046-38-38-38zM370.523 323.995c-37.494 0-68-30.505-68-68s30.505-68 68-68 68 30.505 68 68-30.505 68-68 68zm103.474-50h-17.33a88.04 88.04 0 0 0 1.854-18c0-6.167-.64-12.188-1.854-18h17.33c9.925 0 18 8.075 18 18s-8.075 18-18 18zm0 112.125H245.643c-14.183-29.614-44.45-50.116-79.418-50.116S101 356.506 86.807 386.12H38.004c-20.953 0-38 17.047-38 38s17.047 38 38 38h48.912c14.23 29.5 44.432 49.883 79.308 49.883s65.078-20.394 79.308-49.882h228.464c20.953 0 38-17.047 38-38s-17.045-38-37.998-38zm-435.993 56c-9.925 0-18-8.075-18-18s8.075-18 18-18h42.05c-1.197 5.776-1.828 11.757-1.828 17.883 0 6.2.65 12.268 1.88 18.117h-42.1zM166.225 492c-37.494 0-68-30.505-68-68s30.505-68 68-68 68 30.505 68 68-30.505 68-68 68zm307.772-49.882H252.344a87.96 87.96 0 0 0 1.88-18.117 87.98 87.98 0 0 0-1.828-17.883h221.602c9.925 0 18 8.075 18 18s-8.075 18-18 18zM356.068 52.93A10.07 10.07 0 0 0 349 50c-2.63 0-5.2 1.07-7.07 2.93A10.08 10.08 0 0 0 339 60a10.07 10.07 0 0 0 2.93 7.069C343.8 68.93 346.37 70 349 70a10.07 10.07 0 0 0 7.069-2.931c1.86-1.86 2.93-4.44 2.93-7.07s-1.07-5.2-2.93-7.07zM473.996 50h-88.5c-5.522 0-10 4.478-10 10s4.478 10 10 10h88.5c9.925 0 18 8.075 18 18s-8.075 18-18 18H252.37a88.04 88.04 0 0 0 1.854-18c0-6.167-.64-12.188-1.854-18H307c5.522 0 10-4.478 10-10s-4.478-10-10-10h-61.412C231.38 20.45 201.146 0 166.225 0S101.07 20.448 86.862 50H38.004c-20.953 0-38 17.047-38 38s17.047 38 38 38H86.86c14.207 29.552 44.44 50 79.363 50s65.156-20.448 79.363-50h228.4c20.953 0 38-17.047 38-38s-17.046-38-38-38zM80.08 106H38.004c-9.925 0-18-8.075-18-18s8.075-18 18-18H80.08a88.04 88.04 0 0 0-1.854 18c0 6.168.64 12.188 1.854 18zm86.146 50c-37.494 0-68-30.505-68-68s30.503-68 68-68 68 30.505 68 68-30.505 68-68 68z" fill="#e8d924"/></svg>