<svg xmlns="http://www.w3.org/2000/svg" viewBox="0 0 56.48 56.48"  xmlns:v="https://vecta.io/nano" fill="#fff"><path d="M35.9 21.25c-.2-.08-.388-.067-.6-.06v.9c.198.014.383.02.557-.066.168-.083.24-.225.243-.4.001-.167-.046-.305-.2-.376zm-3.868 13.312c-.233-.023-.47-.007-.722-.007l.004.723c0 .023.037.066.057.066l.6-.012c.184-.02.304-.186.3-.383.006-.207-.084-.37-.26-.387zm19.513-14.42c-.304-.003-.55.244-.55.554s.244.566.542.564a.53.53 0 0 0 .536-.551c.001-.324-.22-.563-.528-.567zm.2.556c-.03.015-.068.02-.115.034l.188.298-.02.022c-.027-.018-.06-.03-.08-.055-.04-.053-.078-.1-.106-.172-.048-.106-.125-.126-.25-.087v.307c-.015 0-.028-.001-.04-.001v-.68c.124 0 .254-.013.38.005.05.008.114.073.133.125.03.08-.002.163-.1.203z"/><path d="M55.026 9.94H1.454C.65 9.94 0 10.6 0 11.393v33.694c0 .803.65 1.455 1.454 1.455h53.572c.804 0 1.454-.65 1.454-1.454V11.393c0-.803-.65-1.454-1.454-1.454zM49.8 20.156h.575V30.54H49.8V20.156zm-16.315-.047h.115 2.654c.336.002.67.024.99.143.42.156.632.467.67.9.026.295.004.588-.175.844-.16.226-.388.344-.642.424l-.11.036.204.052a.74.74 0 0 1 .598.615l.097.667.178 1.093-.075.005c-.548 0-1.097-.002-1.644.002-.08 0-.11-.03-.12-.1l-.168-.98-.067-.38c-.027-.12-.107-.2-.226-.22-.142-.024-.29-.027-.447-.04v1.71h-1.832V20.11zm-5.05.005h3.607v1.23h-1.81v.525h1.664v1.236h-1.666v.545l.115.006 1.653-.001c.086-.001.116.02.115.112l-.001 1.03c.001.07-.02.093-.092.093l-3.534-.001c-.013 0-.027-.004-.05-.006l.001-4.77zm3.22 5.833l-.001.397v4.136c0 .146 0 .146-.146.146-.54 0-1.08-.002-1.62.002-.087.002-.108-.027-.108-.11l.001-4.565c0-.03.004-.062.007-.106h.84l.925-.002c.08-.002.106.024.103.1zm-8.72-5.83h4.23v1.27h-1.17v3.497h-1.88v-3.493h-1.18v-1.275zm-5.553 3.307h1.78l.055.232c.067.212.233.297.517.275.203-.017.36-.16.388-.354.02-.136-.06-.27-.22-.33l-.572-.18-1.083-.336c-.63-.24-.842-.74-.77-1.386s.478-1.005 1.062-1.2c.516-.172 1.048-.177 1.582-.135.338.027.665.1.963.266.433.242.637.62.65 1.1 0 .01 0 .02-.002.032s-.006.012-.013.028l-.1.006c-.48 0-.96-.002-1.44.001-.083.001-.13-.01-.14-.1-.015-.15-.116-.255-.276-.27a1.32 1.32 0 0 0-.39.033c-.113.026-.18.115-.186.236-.006.116.046.2.154.248l1.598.483c.75.275 1.062.838.916 1.624-.112.598-.5.943-1.052 1.137-.418.147-.852.183-1.3.177-.39-.006-.777-.047-1.148-.184-.6-.22-.93-.632-.983-1.266-.002-.025-.002-.05-.002-.075.001-.017.004-.034.004-.062zm-4.717-3.315l3.364-.002c.092 0 .127.022.126.118l-.002 1.01c0 .032-.004.063-.006.108h-1.81v.525h1.672v1.234h-1.67v.55H16.2v1.23h-3.67l-.007-.152-.001-4.48c0-.14 0-.14.14-.14zm-2.514 4.778h-1.82l-.442-3.08H7.85l-.442 3.08h-.35c-.522 0-1.045-.003-1.568.003-.103.002-.133-.037-.152-.126l-.407-1.907-.576-2.648c-.007-.028-.005-.056-.007-.097h1.668l.404 2.996h.032l.442-2.993.115-.006 1.72-.002c.09-.001.118.022.13.115l.292 1.96.13.922c.012 0 .023.001.034.002l.403-2.992h1.677l-.094.464-.388 1.8-.5 2.292c-.048.218-.05.216-.268.215zm3.652 12.05c.001.075-.024.102-.1.1l-.542-.001v-2.46c-.084.2-.15.4-.214.606l-.568 1.787c-.01.028-.057.062-.09.064l-.365.006c-.073.003-.11-.028-.13-.096l-.4-1.3-.342-1.04v.09l.001 2.204c.002.106-.032.137-.134.132l-.468-.002V34.05h.483l.45-.002c.08-.001.113.03.134.103l.57 1.976c.002.01.008.02.022.05l.615-1.974c.035-.1.08-.162.206-.155h.763c.08-.002.107.026.106.104v2.782zm3.248-.534c-.168.37-.473.576-.86.664-.362.082-.718.052-1.058-.102-.37-.17-.6-.46-.676-.85-.046-.208-.056-.423-.083-.635.03-.307.097-.598.25-.864a1.19 1.19 0 0 1 .84-.59c.33-.067.653-.044.97.076.333.127.548.373.673.695a2.01 2.01 0 0 1-.057 1.605zm3.444.532c.002.082-.028.105-.105.104-.23-.004-.46-.004-.688 0-.07 0-.106-.025-.137-.1l-1.04-2.237-.05-.09v2.254c0 .16 0 .16-.165.16h-.444V34.05h.816c.08-.002.12.027.154.1l1.007 2.122c.007.017.016.03.04.048v-.142l-.002-2c-.001-.1.028-.134.127-.13a2.78 2.78 0 0 0 .365 0c.094-.004.123.028.123.123l-.002 2 .001.764zM18.49 30.6c-.473-.135-.86-.398-1.046-.877-.07-.178-.12-.374-.123-.562l-.007-3.256c0-.013.004-.027.006-.054h1.873v.13l.004 2.976a.86.86 0 0 0 .064.312c.057.15.185.214.342.205s.26-.09.305-.23a1.16 1.16 0 0 0 .049-.336l.003-3.055h1.882v3.177c-.001.84-.462 1.414-1.284 1.604-.692.16-1.384.163-2.067-.035zm4.762 6.427h-2.04l-.001-2.85c-.001-.104.03-.13.132-.13h1.73c.11-.002.145.03.136.14-.01.117-.002.234-.002.36h-1.34l.005.637c0 .02.066.053.102.054l1 .002c.045 0 .09.005.14.008v.49l-.152.008c-.33 0-.66.002-.99-.002-.084 0-.11.027-.11.11l.001.662.136.007 1.15-.002c.082 0 .107.022.103.104l-.003.404zm.126-6.52l-.001-4.535c0-.1.027-.125.125-.125l2.03.001c.08-.001.117.02.144.1l.948 2.7c.008.026.02.05.03.073l.03-.006v-2.87h1.51v4.768l-.1.007c-.68 0-1.36-.002-2.042.002-.08 0-.117-.026-.144-.103l-.928-2.672-.053-.133c-.01.002-.02.003-.03.004v2.895h-1.518l-.005-.115zm2.65 4.035l-.71 1.336c-.024.045-.035.1-.035.152v.893c.001.088-.03.118-.117.114a5.14 5.14 0 0 0-.43 0c-.082.003-.104-.028-.103-.106v-.88c-.002-.07-.02-.15-.054-.21l-.9-1.666-.048-.103.697.003c.03.002.07.04.086.072l.57 1.256.246-.53.333-.72c.027-.062.06-.085.127-.083h.577l-.25.472zm4.196.022c-.218 0-.432-.001-.647.001-.267.002-.222-.026-.222.22l-.002 2.25c-.205 0-.4.001-.597-.003-.02-.001-.048-.038-.054-.062-.01-.037-.004-.078-.004-.117l.002-2.172c0-.096-.03-.123-.122-.12-.218.005-.437-.001-.655.003-.08.002-.108-.024-.104-.104.005-.097.007-.193-.001-.29s.03-.12.123-.12h2.285l-.002.514zm2.13 2.462l-.1-.768a2.19 2.19 0 0 0-.044-.242c-.025-.102-.1-.168-.197-.172l-.664-.004v1.186h-.66l-.006-.115-.002-2.74c0-.094.024-.123.12-.123l1.192.006c.18.006.37.026.535.088.307.115.445.37.46.688a.69.69 0 0 1-.444.673l-.13.053c.365.047.437.3.476.58a21.09 21.09 0 0 0 .104.668c.012.073.044.14.07.223l-.697-.001zm.714-9.167c.08-.73.35-1.356.996-1.765.462-.296.98-.377 1.52-.368.4.007.8.07 1.155.244a2 2 0 0 1 1.082 1.24c.232.72.23 1.447-.038 2.156-.284.755-.86 1.176-1.64 1.324-.205.04-.418.048-.627.07-.528-.016-1.032-.108-1.483-.402-.468-.304-.742-.744-.88-1.275-.106-.403-.13-.812-.085-1.224zm2.85 9.175c-.117-.001-.267.037-.345-.022s-.1-.21-.136-.326c-.096-.29-.094-.3-.394-.3-.254 0-.51.004-.763-.003-.08-.002-.116.03-.14.1l-.15.447c-.02.07-.053.098-.128.096l-.527-.002 1.025-2.855c.033-.092.074-.138.18-.13a5.79 5.79 0 0 0 .527 0c.077-.002.116.025.14.098l.963 2.796.026.096c-.1 0-.2.001-.28-.004zm3.36.005c-.24-.002-.482.003-.72-.005-.04-.001-.097-.043-.116-.08l-1.075-2.302-.018 2.247c0 .14 0 .14-.143.14h-.472l-.002-2.86c0-.1.024-.133.125-.13a16.24 16.24 0 0 0 .698 0c.08-.004.12.028.152.1l1 2.112.042.076.005-.095-.002-2.074c0-.097.03-.122.123-.118h.397c.07-.002.093.028.093.096l.002 2.805c0 .067-.027.088-.09.088zm.227-16.933h2.03c.08-.001.113.028.138.1l.937 2.69c.01.032.026.063.04.095l.028-.004v-2.872h1.51v4.767l-.083.006c-.682 0-1.36-.002-2.04.002-.1.001-.133-.023-.163-.11l-.884-2.55c-.027-.08-.056-.16-.11-.238l-.007.097.002 2.686c0 .098-.026.12-.12.12l-1.3-.002c-.03 0-.06-.003-.104-.005l-.008-.118v-4.534c0-.098.027-.127.126-.127zM39.38 30.52v-4.566c0-.078.02-.107.103-.106l2.063-.001c.075-.001.103.03.125.096l.944 2.7c.01.03.025.058.058.082v-2.868h1.518v4.77h-.105l-2.04.002a.12.12 0 0 1-.137-.098l-.938-2.704c-.01-.034-.03-.068-.07-.1v.154l.002 2.622c.001.102-.028.125-.126.125a54.53 54.53 0 0 0-1.279 0c-.086 0-.12-.018-.118-.1zm2.808 6.126c-.166.222-.393.345-.66.406-.36.082-.718.082-1.064-.053-.323-.123-.49-.37-.52-.71-.02-.22-.017-.22.206-.22l.365.003c.027.001.076.037.076.058 0 .457.363.546.705.48.084-.017.174-.052.24-.105.22-.175.17-.485-.095-.576l-.618-.176c-.132-.043-.263-.096-.386-.158-.594-.297-.47-1.027-.146-1.305a1.09 1.09 0 0 1 .485-.24c.3-.067.603-.07.9.023.38.12.623.466.582.838h-.582c-.062-.115-.1-.238-.174-.322-.175-.193-.584-.158-.74.05s-.058.468.213.55l.65.18c.164.058.334.12.47.224.308.235.338.715.092 1.056zm2.683-2.1h-1.268l.004.66c.001.02.067.054.102.054l.945.002c.14 0 .14 0 .14.14v.37h-1.188v1.26c-.2 0-.404.002-.595-.003-.02 0-.047-.036-.058-.06s-.002-.05-.002-.074l-.002-2.717c0-.082.012-.125.108-.125h1.718c.03 0 .057.006.095.01v.48zm.434-14.4h.578V30.54h-.578V20.156zm2.14 16.872h-2.023v-2.973l.127-.006 1.73-.002c.103 0 .14.03.132.133-.01.117-.002.235-.002.365H46.07l.005.642c0 .018.07.05.106.05l.998.003c.143 0 .143.001.143.14v.36l-.16.008h-.935c-.16 0-.16-.001-.16.165l-.002.504c-.002.08.02.11.108.1l1.272-.001v.505zm2.3.006c-.018-.001-.047-.048-.05-.077l-.125-.825c-.033-.224-.107-.29-.333-.29h-.558v1.188h-.653v-2.97l.13-.006 1.148.002c.164.001.332.02.488.063.318.087.526.363.53.7a.68.68 0 0 1-.453.688l-.116.05a.48.48 0 0 1 .446.445l.06.38.117.65c-.197 0-.414.002-.63 0zm1.802-15.71c-.347.003-.637-.278-.64-.618a.63.63 0 0 1 .621-.625c.356-.004.625.263.627.62.002.34-.268.62-.608.622z"/><path d="M51.734 20.443c-.107-.022-.218-.027-.33-.035-.007 0-.018.02-.02.033-.05.148.004.224.188.224.017-.001.065.007.106-.01s.08-.054.088-.1-.012-.116-.03-.12zm-15.704 7.79v-.323c-.018-.246-.03-.493-.14-.722-.08-.17-.215-.24-.396-.234a.37.37 0 0 0-.361.255c-.04.113-.084.232-.1.35l-.02 1.2c.008.2.078.382.14.566.043.133.165.2.304.2.242.02.4-.088.467-.358.064-.303.1-.614.13-.92-.012 0-.022-.001-.034-.003zm-19.566 6.698a.64.64 0 0 0-.626-.466.65.65 0 0 0-.669.455 1.87 1.87 0 0 0-.005 1.24c.1.294.307.456.626.464s.517-.12.657-.434c.095-.213.1-.442.1-.67l.028-.007c-.038-.194-.06-.394-.12-.582zm18.3-.262l-.42 1.22h.816l-.396-1.22zm14.52-.12l-.548-.013c-.062-.002-.083.02-.082.08v.643c0 .056.017.1.08.088l.568-.012c.2-.015.336-.2.328-.42s-.128-.358-.345-.366z"/></svg>