<svg xmlns="http://www.w3.org/2000/svg" viewBox="0 0 511 512"  xmlns:v="https://vecta.io/nano"><path d="M347.34 155.148a10 10 0 0 0-10 9.996c0 5.523 4.48 10 10 10 5.531 0 10-4.477 10-10a9.99 9.99 0 0 0-10-9.996zM165.645 336.84a10 10 0 0 0-10 10 9.99 9.99 0 0 0 10 10 10 10 0 0 0 10-10c0-5.52-4.48-10-10-10zm0 0" fill="#e8d924"/><path d="M500.059 61.52a9.99 9.99 0 0 0-9.359 2.695L449.242 106h-19.875l-21.879-22.668V63.18l40.863-41.473c2.418-2.453 3.402-5.98 2.602-9.336a9.99 9.99 0 0 0-6.531-7.156C434.156 1.754 423.414 0 412.488 0c-32.57 0-62.16 15.188-81.184 41.668-17.805 24.789-23.293 55.168-15.43 84.242l-73.66 73.66-122.719-123V52.43a10 10 0 0 0-4.855-8.574L43.934 1.426C39.996-.937 34.961-.316 31.719 2.93L3.438 31.207a10.01 10.01 0 0 0-1.504 12.219l42.422 70.707a10 10 0 0 0 8.57 4.855l24.133.008 122.73 123-73.379 73.379c-29.074-7.859-59.469-2.363-84.27 15.453C15.676 349.84.5 379.422.5 411.992a99.72 99.72 0 0 0 5.215 31.93 9.99 9.99 0 0 0 7.211 6.547 10 10 0 0 0 9.363-2.695l41.453-41.781h19.984l22.77 22.77v19.984L64.715 490.2a10 10 0 0 0-2.695 9.363 9.99 9.99 0 0 0 6.547 7.211 99.72 99.72 0 0 0 31.93 5.215c32.57 0 62.148-15.18 81.164-41.645 17.816-24.801 23.313-55.191 15.453-84.266l58.934-58.934 13.5 14.664-6.195 6.191c-3.906 3.906-3.906 10.238 0 14.145a10.01 10.01 0 0 0 14.145 0l5.609-5.609L409.77 494.121c.094.102.191.199.289.297 23.438 23.438 61.41 23.445 84.859-.004 23.383-23.395 23.383-61.461 0-84.855-.102-.102-.207-.199-.312-.297L356.805 282.84l5.547-5.547a10 10 0 0 0 0-14.141c-3.906-3.906-10.234-3.906-14.145 0l-6.152 6.156-14.691-13.484 59.219-59.219c8.418 2.25 17.105 3.391 25.906 3.391 55.141 0 99.996-44.859 99.996-99.996 0-10.926-1.754-21.668-5.215-31.934a9.99 9.99 0 0 0-7.211-6.547zM88.285 101.934c-1.875-1.879-4.418-2.836-7.074-2.836l-22.617-.008-35.492-59.258L40.34 22.594l59.156 35.5v22.617a10 10 0 0 0 2.922 7.063l125.656 125.941-14.145 14.141zm254.363 195.062l138.27 126.848c15.445 15.609 15.398 40.883-.145 56.434-15.578 15.578-40.797 15.625-56.437.137L297.258 342.379zm-14.75-13.535l-44.199 44.191-13.5-14.664 43.008-43.012zm84.59-103.465a79.91 79.91 0 0 1-25.559-4.168 10.02 10.02 0 0 0-10.262 2.406L178.734 376.168a10 10 0 0 0-2.406 10.266c8.313 24.684 4.336 51.012-10.914 72.242-15.207 21.168-38.871 33.313-64.918 33.313a81.91 81.91 0 0 1-8.719-.469l31.762-31.516c1.891-1.875 2.957-4.43 2.957-7.098v-28.289a10 10 0 0 0-2.93-7.07l-28.629-28.629a10 10 0 0 0-7.07-2.93H59.578a10.01 10.01 0 0 0-7.102 2.957l-31.512 31.762a81.03 81.03 0 0 1-.469-8.719c0-26.051 12.141-49.711 33.313-64.918 21.227-15.25 47.559-19.23 72.246-10.914 3.598 1.215 7.574.281 10.262-2.406L334.25 135.816a10 10 0 0 0 2.406-10.262c-8.316-24.684-4.348-51.004 10.891-72.219C362.766 32.148 386.434 20 412.484 20a81.72 81.72 0 0 1 8.98.496l-31.102 31.566c-1.844 1.871-2.875 4.391-2.875 7.016v28.289a9.99 9.99 0 0 0 2.805 6.945l27.629 28.629a9.99 9.99 0 0 0 7.195 3.055h28.289c2.664 0 5.219-1.062 7.098-2.957l31.512-31.758c.313 2.883.469 5.793.469 8.719 0 44.109-35.887 79.996-79.996 79.996zm-100.5 6.359L186.852 311.492c-3.902 3.902-3.902 10.234 0 14.141s10.238 3.906 14.145 0l125.137-125.137a10 10 0 0 0 0-14.141c-3.906-3.906-10.238-3.906-14.145 0zM438.355 452c3.906 3.895 10.238 3.895 14.145-.023 3.898-3.91 3.887-10.242-.023-14.141l-90.137-89.848c-3.91-3.898-10.246-3.887-14.141.023a10 10 0 0 0 .02 14.141zm0 0" fill="#e8d924"/></svg>