<svg xmlns="http://www.w3.org/2000/svg" viewBox="0 0 56.48 56.48"  xmlns:v="https://vecta.io/nano" fill="#fff"><path d="M55.026 9.94H1.454A1.46 1.46 0 0 0 0 11.393v33.695c0 .803.65 1.454 1.454 1.454h53.572c.804 0 1.454-.65 1.454-1.454V11.393c0-.803-.65-1.454-1.454-1.454zM4.373 21H10.4c.813.03 1.468.3 1.694 1.16l1.3 6.305c-1.288-3.298-4.392-6.042-9.083-7.178L4.37 21zm7.294 14.38L8.185 23.484c2.503 1.602 4.635 4.144 5.386 5.913l.406 1.47 3.808-9.73h4.12l-6.123 14.24-4.115.003zm13.266.01h-3.888l2.43-14.268h3.9L24.933 35.4zm6.766.214c-1.743-.018-3.422-.363-4.332-.762l.547-3.193.5.227c1.277.533 2.104.75 3.66.75 1.117 0 2.314-.437 2.325-1.393.007-.625-.5-1.07-2.015-1.77-1.476-.682-3.43-1.826-3.406-3.875.02-2.773 2.73-4.708 6.572-4.708 1.506 0 2.713.3 3.483.6l-.533 3.1-.35-.165c-.716-.288-1.637-.566-2.9-.546-1.522 0-2.228.634-2.228 1.227-.008.668.824 1.108 2.184 1.77 2.243 1.018 3.28 2.253 3.266 3.876-.03 2.96-2.683 4.872-6.772 4.872zm16.85-.208l-.473-2.138c-.566 0-4.534-.006-4.98-.006l-.817 2.144h-4.083L43.97 22.32c.4-.93 1.105-1.184 2.037-1.184H49l3.147 14.258-3.608.001zm-2.007-9.18l-.262-1.23-.517 1.362-1.55 3.988h3.23l-.9-4.12z"/></svg>